<svg xmlns="http://www.w3.org/2000/svg" viewBox="0 0 700 820" role="img" aria-label="LIVE SPORTS">
  <defs>
    <radialGradient id="halo" cx="50%" cy="30%" r="70%">
      <stop offset="0" stop-color="#f9d99a" stop-opacity=".54"/>
      <stop offset=".38" stop-color="#c99a49" stop-opacity=".18"/>
      <stop offset="1" stop-color="#050403" stop-opacity="0"/>
    </radialGradient>
    <linearGradient id="gold" x1="0" x2="1" y1="0" y2="1">
      <stop offset="0" stop-color="#fff1be"/>
      <stop offset=".48" stop-color="#d09a42"/>
      <stop offset="1" stop-color="#744011"/>
    </linearGradient>
    <linearGradient id="steel" x1="0" x2="1" y1="0" y2="1">
      <stop offset="0" stop-color="#2a2117"/>
      <stop offset="1" stop-color="#070605"/>
    </linearGradient>
    <filter id="shadow" x="-30%" y="-30%" width="160%" height="160%">
      <feDropShadow dx="0" dy="34" stdDeviation="28" flood-color="#000" flood-opacity=".72"/>
      <feDropShadow dx="0" dy="0" stdDeviation="14" flood-color="#d09a42" flood-opacity=".28"/>
    </filter>
  </defs>
  <rect width="700" height="820" fill="none"/>
  <circle cx="350" cy="365" r="300" fill="url(#halo)"/>
  <g opacity=".32" stroke="#f8dc9e" stroke-width="1">
    <circle cx="350" cy="365" r="270" fill="none"/>
    <circle cx="350" cy="365" r="210" fill="none"/>
    <path d="M80 365 H620 M350 95 V700"/>
  </g>
  <g filter="url(#shadow)">
    <path d="M 170 630 C 260 520 430 510 535 630 C 445 682 265 688 170 630" fill="url(#steel)" stroke="#f8dc9e" stroke-opacity=".32" stroke-width="3"/>
    <path d="M 170 630 C 260 520 430 510 535 630 C 445 682 265 688 170 630" fill="url(#gold)" opacity=".18"/>
  </g>
  <g filter="url(#shadow)">
    <circle cx="350" cy="390" r="118" fill="#080604" stroke="#f8dc9e" stroke-opacity=".55" stroke-width="4"/>
    <circle cx="350" cy="390" r="94" fill="url(#gold)" opacity=".9"/>
    <text x="350" y="410" text-anchor="middle" font-family="Arial, sans-serif" font-size="70" font-weight="900" fill="#150d04">⚽</text>
  </g>
  <g transform="translate(95 120)">
    <rect x="0" y="0" width="510" height="88" rx="44" fill="#060504" stroke="#f8dc9e" stroke-opacity=".18"/>
    <text x="255" y="39" text-anchor="middle" font-family="Arial, sans-serif" font-size="26" font-weight="900" letter-spacing="5" fill="#f8dc9e">LIVE SPORTS</text>
    <text x="255" y="66" text-anchor="middle" font-family="Arial, sans-serif" font-size="17" font-weight="700" fill="#d7c3a2">라이브 스포츠</text>
  </g>
  <text x="350" y="760" text-anchor="middle" font-family="Arial, sans-serif" font-size="20" font-weight="800" fill="#8c7b61">경기장 조명</text>
</svg>